<svg xmlns="http://www.w3.org/2000/svg" viewBox="0 0 210 297">
  <rect width="210" height="297" fill="#fbf7ec"/>
  <g fill="none" stroke="#d79c83" stroke-width=".75" opacity=".68"><path d="M172 0c-3 19 0 31 8 45"/><path d="M184 2c-10 11-13 23-12 38"/><path d="M197 3c-14 8-21 20-23 34"/></g>
  <g fill="#e9a7a0" opacity=".58"><circle cx="181" cy="36" r="2"/><circle cx="170" cy="25" r="1.7"/><circle cx="197" cy="19" r="1.8"/></g>
  <path d="M48 48q57-18 114 0l10 12v125q0 10-10 10H48q-10 0-10-10V60Z" fill="#fffdf7" opacity=".9" stroke="#b89b6d" stroke-width="1.15"/>
  <path d="M51 52q54-15 108 0l7 10v119q0 8-8 8H52q-8 0-8-8V62Z" fill="none" stroke="#b89b6d" stroke-width=".65" opacity=".75"/>
  <rect x="53" y="148" width="104" height="15" rx="1" fill="none" stroke="#b89b6d" stroke-width=".65" opacity=".8"/>
  <path d="M0 224c36-20 67-21 96-2 42-28 76-29 114-4v79H0Z" fill="#e8e2d0" opacity=".8"/>
  <path d="M0 257h28v-18h17v18h19v-26h19v26h27v-16h19v16h81v40H0Z" fill="#303531" opacity=".9"/>
  <g fill="#fbf7ec"><rect x="5" y="248" width="18" height="9"/><rect x="34" y="247" width="21" height="10"/><rect x="70" y="245" width="25" height="12"/><rect x="118" y="250" width="20" height="7"/></g>
</svg>
